/* XPM */
static char * bitcoin32_xpm[] = {
"32 32 34 1",
" 	c None",
".	c #0C0C0C",
"+	c #646464",
"@	c #010101",
"#	c #000000",
"$	c #797979",
"%	c #494949",
"&	c #030303",
"*	c #6F6F6F",
"=	c #525252",
"-	c #777777",
";	c #393939",
">	c #535353",
",	c #757575",
"'	c #727272",
")	c #3E3E3E",
"!	c #232323",
"~	c #505050",
"{	c #090909",
"]	c #767676",
"^	c #2B2B2B",
"/	c #999999",
"(	c #0E0E0E",
"_	c #7F7F7F",
":	c #0D0D0D",
"<	c #F9F9F9",
"[	c #7A7A7A",
"}	c #676767",
"|	c #575757",
"1	c #585858",
"2	c #4E4E4E",
"3	c #070707",
"4	c #040404",
"5	c #020202",
"                                ",
"               .+               ",
"             @#@$               ",
"             #@@$               ",
"         @%  #@@$   &#*         ",
"        #@=  #@@$   #@-         ",
"     #;  @>  &@@$   #@,  #'     ",
"     #)  @!~{@@@$        @]     ",
"     #^/.@@@@@@@$        (_     ",
"     ###@@@@@@@@$               ",
"     #@@@@@@@@@@$               ",
"     #@@@@@@@@@@$               ",
"     #@@@@@@@@@@$               ",
"     #@@@@@@@@@@$               ",
"     #@@@@@@@@@@$     @:<       ",
"     #@@@@@@@@@@$      #[       ",
"     #@@@@@@@@@@$      @}       ",
"     #@@@@@@@@@@$      @|       ",
"     #@@@@@@@@@@$      @1       ",
"     #@@@@@@@@@@$      @1       ",
"     #@@@@@@@@@@$      @1       ",
"     #@@@@@@@@@@$      @1       ",
"     #@@@@@@@@@@$      @1       ",
"     #@@@@@@@@@@$      @1       ",
"     #@@@@@@@@@@$      @1       ",
"     &#@@@@@@@@@$      @1       ",
"       {#@@@@@@@$      @2       ",
"         3#@@@@@$               ",
"           4#@@@$               ",
"             4@@$               ",
"               5*               ",
"                                "};
